<svg xmlns="http://www.w3.org/2000/svg" width="512" height="512"><path fill-opacity=".188" d="M73.105 36.583c-16.116 4.333-31.095 18.931-36.12 35.2C35.037 78.092 35 81.475 35 255.395c0 193.933-.335 182.685 5.783 193.965 6.208 11.445 18.84 21.899 31 25.655 6.309 1.948 9.692 1.985 183.612 1.985 193.933 0 182.685.335 193.965-5.783 11.445-6.208 21.899-18.84 25.655-31 1.948-6.309 1.985-9.692 1.985-183.612 0-193.933.335-182.685-5.783-193.965-6.208-11.445-18.84-21.899-31-25.655-6.313-1.95-9.596-1.984-184.072-1.919-151.942.056-178.426.276-183.04 1.517" fill="#1976D2" fill-rule="evenodd"/><path fill-opacity=".334" d="M74.634 36.586C56.213 41.045 40.378 57.287 36.469 75.73c-1.214 5.73-1.437 33.453-1.452 180.471-.012 122.214.308 175.271 1.08 179 2.957 14.282 13.779 28.793 26.496 35.524 12.498 6.615 1.045 6.245 193.407 6.245 192.291 0 180.868.368 193.407-6.223 7.795-4.097 17.243-13.545 21.34-21.34 6.591-12.539 6.223-1.116 6.223-193.407 0-152.141-.193-175.321-1.51-180.907-4.375-18.56-19.993-34.178-38.553-38.553-9.342-2.202-353.165-2.158-362.273.046M110 85.5V92h15.93l-5.405 15.25c-2.972 8.388-12.102 33.925-20.288 56.75l-14.885 41.5-9.176.288-9.176.287V219h55v-13h-9c-4.95 0-9.009-.338-9.02-.75-.011-.412 3.016-9.637 6.728-20.5l6.748-19.75h51.274l6.992 20.25 6.992 20.25-9.357.286-9.357.286V219h57v-12.922l-8.619-.289-8.618-.289-20.751-56.5-20.751-56.5 7.87-.29 7.869-.291V79h-68v6.5m128-.059V92h19v114h-19v13h59v-13h-19V91.858l21.25.321c20.933.316 21.327.362 26.438 3.056 11.386 6.004 15.99 19.299 11.714 33.833-1.183 4.024-2.828 6.625-6.344 10.035-6.9 6.692-11.641 8.091-29.308 8.649l-14.75.466V161.277l16.75-.548c30.386-.993 43.916-7.128 51.954-23.557 2.337-4.777 2.821-7.208 3.138-15.78.476-12.868-1.276-19.402-7.118-26.546-4.919-6.013-13.046-10.86-22.621-13.49-5.789-1.59-11.814-1.855-48.853-2.144l-42.25-.33v6.559m143 .059V92h20.017l-.259 56.75-.258 56.75-9.75.286-9.75.286V219h59v-13h-20V92h20V79h-59v6.5M139.719 99.25C130.321 125.983 122 150.33 122 151.097c0 .509 9.305.903 21.337.903h21.337l-6.805-19.75c-3.744-10.862-8.26-24.362-10.038-30-1.777-5.638-3.756-10.25-4.397-10.25-.641 0-2.313 3.263-3.715 7.25m58.421 184.268c-23.416 6.54-30.893 36.517-13.249 53.119 2.258 2.125 4.106 4.329 4.107 4.899.003 1.901-10.763 27.887-11.637 28.09-.474.109-2.099.472-3.611.806-2.418.533-2.75 1.07-2.75 4.451 0 2.114-.489 6.268-1.087 9.231-.598 2.962-1.161 5.996-1.25 6.74-.09.745 1.412 2.232 3.337 3.303 6.227 3.466 14.346.847 17.414-5.617 2.066-4.353 2.002-7.301-.253-11.725l-1.839-3.607 6.734-16.486c9.12-22.325 8.734-20.275 4.246-22.583-11.792-6.065-16.403-20.493-10.022-31.362 11.671-19.881 43.515-8.183 40.361 14.826-.559 4.075-.517 4.142 3.591 5.756 4.85 1.905 5.324 1.503 6.262-5.313 1.224-8.899-3.455-21.171-10.395-27.264-8.102-7.113-20.089-10.02-29.959-7.264m89.594 4.57c-9.139 2.153-16.224 8.15-21.414 18.126-2.49 4.785-2.787 6.488-3.134 17.981l-.384 12.695 3.489 1.458c1.918.802 5.338 3.129 7.599 5.171l4.11 3.714v-16.182c0-9.977.429-17.02 1.12-18.367 2.42-4.72 7.392-8.777 12.615-10.295l5.265-1.531v-6.929c0-6.917-.005-6.929-2.75-6.829-1.512.056-4.444.5-6.516.988M306 294.5c0 6.325.26 7.5 1.662 7.5.914 0 3.602 1.137 5.974 2.527 5.203 3.049 9.364 9.639 9.364 14.83 0 4.084-.439 4.029 9.316 1.164 3.409-1.001 4.243-1.725 4.504-3.908 1.076-9.024-9.861-23.248-21.108-27.451-9.486-3.544-9.712-3.42-9.712 5.338M94 348v60h14V288H94v60m23-53.156v6.844l8.159 1.154c10.438 1.476 16.287 4.725 18.911 10.504 1.715 3.776 1.888 6.932 1.908 34.692.021 29.703-.04 30.66-2.228 35-3.182 6.31-8.738 9.176-18.933 9.766l-7.817.453v15.019l7.25-.66c19.16-1.743 30.052-8.323 34.389-20.775 1.673-4.802 1.861-8.77 1.861-39.341v-34l-2.609-5.5c-2.973-6.266-5.877-9.638-11.507-13.365-4.681-3.097-17.767-6.635-24.544-6.635H117v6.844m82.42 8.042c-7.217 4.401-8.155 14.506-1.859 20.034 3.15 2.765 8.533 4.656 11.109 3.901.603-.176 2.869 1.929 5.035 4.679 2.165 2.75 7.389 9.372 11.607 14.715l7.669 9.714 4.76-2.953c9.176-5.694 19.143-4.889 26.795 2.164 8.137 7.5 9.434 18.034 3.35 27.218-4.64 7.005-8.84 9.142-17.97 9.142-6.735 0-8.14-.346-12.56-3.09l-4.976-3.091-3.381 2.823-3.381 2.823 2.441 2.616c6.678 7.159 21.504 10.455 31.598 7.025 10.662-3.623 17.81-10.706 20.731-20.542 5.052-17.01-3.599-33.96-19.901-38.995-7.947-2.455-12.447-2.591-19.078-.58-2.7.819-5.393 1.494-5.985 1.5-.593.006-4.769-4.74-9.282-10.546-8.042-10.349-8.184-10.63-7.202-14.19 1.736-6.286-.751-11.987-6.4-14.667-4.446-2.11-9.352-1.998-13.12.3M171.1 356.75c-.055 2.337.35 4.25.9 4.25 1.153 0 1.153-2.401 0-6-.68-2.124-.816-1.86-.9 1.75m68.931 6.118l-4.57 4.869-17.538 3.131c-9.646 1.723-17.911 3.132-18.366 3.132-.456 0-.546 2.064-.2 4.586 1.283 9.364-3.866 19.082-12.425 23.448-5.296 2.703-14.19 2.647-19.354-.12l-3.892-2.086-2.593 3.313c-1.426 1.822-2.593 3.759-2.593 4.304 0 .545 1.8 2.006 4 3.246 18.823 10.608 42.382-.976 46.536-22.882.538-2.836 1.161-5.34 1.385-5.563.224-.224 6.376-1.45 13.671-2.725l13.264-2.319 2.861 2.861c4.956 4.956 12.037 5.119 17.639.405 4.507-3.792 5.761-8.565 3.681-14.01-2.082-5.451-6.562-8.458-12.604-8.458-3.889 0-4.798.497-8.902 4.868m22.986-3.318c-.009.577.414 1.481.942 2.009.527.527 1.66 3.43 2.518 6.45 1.507 5.308 1.545 5.349 1.135 1.235-.368-3.697-4.55-12.519-4.595-9.694m2.772 15.976a103.19 103.19 0 01-1.239 3.974c-.373 1.1.055.736.95-.81.895-1.545 1.452-3.334 1.239-3.974-.214-.641-.641-.276-.95.81m57.878-.859c-.367.366-.669 2.054-.671 3.75-.007 6.003-7.161 13.866-13.83 15.2l-3.166.633v14.624l3.75-.548c13.525-1.98 26.304-14.715 26.615-26.525l.135-5.131-5-1.316c-5.74-1.51-6.908-1.613-7.833-.687M281 388.859c0 .473-1.881 2.997-4.181 5.609l-4.181 4.75 2.431 1.925c4.348 3.443 9.378 5.653 15.396 6.766 3.246.6 6.045 1.091 6.219 1.091.174 0 .316-3.375.316-7.5 0-7.359-.048-7.5-2.532-7.5-3.274 0-8.589-2.234-10.34-4.345-1.474-1.777-3.128-2.198-3.128-.796" fill="#1976D2" fill-rule="evenodd"/><path fill-opacity=".21" d="M79.951 36.061C59.824 39.024 44.117 52.662 37.409 73c-1.645 4.986-1.848 10.673-2.173 60.847l-.359 55.348 15.311-12.437c46.496-37.764 56.332-45.586 56.533-44.954.121.383-5.318 16.221-12.088 35.196l-12.309 34.5-9.662.286-9.662.286V223h63v-21h-8c-4.4 0-8.009-.338-8.02-.75-.01-.412 2.352-7.838 5.25-16.5l5.269-15.75h45.004l5.713 16.5 5.713 16.5H160v21h65v-21h-17.835l-1.618-4.25c-.889-2.338-9.643-26.075-19.453-52.75l-17.835-48.5 6.87-.294 6.871-.294V75h-5.455l2.478-2.393c1.362-1.317 12.298-10.317 24.302-20L225.15 35l-69.825.122c-38.404.067-72.322.49-75.374.939m327.442 10.534c.359 6.548.921 15.617 1.248 20.155l.596 8.25H377v21h19v106h-19v21h40l-.003 3.25c-.005 5.43 11.954 236.785 12.593 243.623l.596 6.373 4.657-.635c8.142-1.11 18.633-6.88 26.12-14.367 7.147-7.147 10.693-13.046 13.699-22.787 1.755-5.687 1.838-13.963 1.838-182.457s-.083-176.77-1.838-182.457c-2.993-9.701-6.545-15.633-13.559-22.646-11.105-11.106-20.54-14.7-40.983-15.611l-13.379-.596.652 11.905M234 85.445V96h19v106h-19v21h67v-21h-19V96l15.75.024c17.551.028 22.96.898 28.588 4.598 9.848 6.474 11.091 25.546 2.295 35.225-5.306 5.839-14.761 8.153-33.317 8.153H283v21h15.869c26.994 0 41.896-4.119 52.623-14.544 12.105-11.765 15.766-34.291 8.243-50.724-4.74-10.353-12.261-16.492-26.235-21.414l-8-2.818-45.75-.305-45.75-.306v10.556M110 85.5V92h7.5c4.239 0 7.5.427 7.5.982 0 .539-3.64 11.002-8.089 23.25-7.027 19.344-26.273 73.109-30.613 85.518L84.812 206H67v13h56v-13h-9.567c-9.372 0-9.554-.045-8.877-2.177.38-1.197 3.511-10.309 6.957-20.25l6.267-18.073h50.719l6.682 19c3.675 10.45 6.713 19.563 6.75 20.25.05.912-2.361 1.25-8.931 1.25h-9v13h57v-13H204.307l-20.664-56.25c-11.365-30.937-20.659-56.588-20.653-57 .005-.412 3.61-.75 8.01-.75h8V79h-69v6.5m128 0V92h19v114h-19v13h59v-13h-19V91.822l20.25.438c22.71.492 25.626 1.118 32.211 6.915 5.654 4.976 7.708 10.291 7.75 20.056.028 6.453-.422 8.681-2.698 13.331-5.226 10.683-13.392 14.242-34.763 15.15l-13.75.585V161l15.25-.017c17.995-.021 26.281-1.496 36.422-6.486 8.69-4.276 15.272-11.162 18.444-19.295 1.768-4.533 2.239-7.855 2.3-16.202.069-9.542-.186-11.069-2.799-16.734-3.447-7.473-10.419-14.371-18.064-17.87-10.687-4.893-15.88-5.36-59.803-5.379L238 79v6.5m143 0V92h19v114h-19v13h60v-13h-20V92h20V79h-60v6.5m-238.258 7.108c-.332.538-4.972 13.558-10.31 28.935-5.339 15.376-9.918 28.52-10.176 29.207-.367.975 4.168 1.25 20.637 1.25 11.609 0 21.107-.278 21.107-.619 0-.9-17.9-53.342-19.392-56.816-.694-1.614-1.534-2.495-1.866-1.957m-.172 12.021c-2.338 5.935-14.57 41.484-14.57 42.343 0 .658 5.394 1.028 15 1.028 11.46 0 15-.3 15-1.27 0-.699-3.306-10.878-7.347-22.621-5.216-15.159-7.56-20.808-8.083-19.48M83.526 278.097c-.29.772-.64 29.62-.777 64.107l-.249 62.703-23.461-10.453C46.135 388.704 35.397 384 35.177 384c-.22 0-.187 11.137.075 24.75.508 26.483 1.074 30.029 6.5 40.744 3.251 6.42 14.334 17.503 20.754 20.754 12.687 6.425 9.052 6.154 87.494 6.511 39.325.179 76.414.194 82.421.033l10.921-.292-65.145-29-65.144-29 10.723-.655c10.878-.664 18.627-2.488 25.547-6.013l3.823-1.947 4.677 2.909c7.585 4.718 11.078 5.706 20.177 5.706 10.091 0 17-2.694 24.398-9.513 4.624-4.262 10.589-14.598 10.617-18.397.028-3.783 1.775-5.068 8.375-6.163l6.468-1.073-4.179 3.816-4.179 3.815 5.699 5.417c7.376 7.01 14.466 9.814 24.801 9.808 4.125-.002 8.79-.509 10.367-1.127 2.641-1.034 3.205-.81 7.16 2.835 9.201 8.481 19.623 11.546 37.139 10.924 9.647-.343 11.574-.733 17.593-3.565 16.388-7.711 26.682-24.522 25.564-41.748l-.323-4.97-15.5-3.736c-8.525-2.055-16.288-3.756-17.25-3.78-1.531-.038-1.75 1.008-1.75 8.375 0 10.006-.372 11.206-4.072 13.119-3.339 1.727-12.804 1.932-16.271.353-4.365-1.989-4.657-4.235-4.657-35.801v-29.816l2.636-2.637c2.342-2.342 3.412-2.636 9.577-2.636 6.338 0 7.195.254 9.864 2.923 2.801 2.801 2.923 3.301 2.923 12 0 4.992.337 9.07.75 9.062.413-.009 8.175-1.972 17.25-4.362l16.5-4.346-.122-8.388c-.212-14.492-6.835-26.355-19.4-34.745-9.232-6.165-14.609-7.403-30.369-6.99-12.971.339-13.363.417-20.862 4.125-8.959 4.429-14.922 10.61-19.918 20.645-3.06 6.146-3.308 7.425-3.801 19.576l-.528 13-5.5.578c-3.025.317-6.659.909-8.076 1.314-2.225.637-3.053.149-6.071-3.577-5.285-6.526-5.251-6.731.747-4.522 6.51 2.398 6.711 2.25 8.492-6.271 3.485-16.677-5.1-33.447-20.917-40.862-4.901-2.297-6.97-2.659-15.175-2.654-8.706.006-10.004.27-15.537 3.157-6.31 3.293-13.118 9.835-15.965 15.341-.92 1.778-2.272 5.992-3.005 9.365-.734 3.372-1.37 5.404-1.414 4.515-.185-3.776-7.339-15.854-11.938-20.156-10.821-10.121-20.387-12.624-51.364-13.437-18.976-.498-22.81-.365-23.251.806M198 282.876c-14.027 4.612-22.156 14.986-22.822 29.124-.472 10.027 2.223 17.348 8.961 24.338l4.899 5.083-5.401 13.5c-4.783 11.953-5.731 13.606-8.27 14.417-5.606 1.792-10.382 7.958-10.351 13.362.022 3.752 3.935 10.463 7.005 12.016 5.877 2.974 14.744.095 17.7-5.746 1.72-3.399 1.589-8.515-.322-12.542-1.596-3.362-1.576-3.435 6.008-22.059 4.185-10.277 7.493-18.727 7.351-18.777-4.448-1.578-10.897-6.189-13.194-9.434-3.412-4.821-4.571-13.577-2.591-19.577 5.602-16.972 29.967-18.277 38.851-2.081.905 1.65 1.878 6.315 2.161 10.366l.515 7.367 3.817 1.517c5.079 2.019 6.025.923 6.491-7.518.697-12.636-6.618-25.035-18.288-30.996-5.365-2.739-17.497-4.011-22.52-2.36m-104.294 4.751c-.388.388-.706 27.631-.706 60.54V408h16.016l-.258-60.25-.258-60.25-7.044-.29c-3.874-.159-7.361.029-7.75.417m189.576 1.483c-6.843 2.631-13.643 9.36-17.327 17.147-2.783 5.883-2.953 6.968-2.954 18.808L263 337.63l3.384 1.613c1.86.887 4.957 2.996 6.882 4.685 1.924 1.69 3.776 3.072 4.116 3.072.34 0 .625-7.087.634-15.75.016-14.47.2-16.073 2.266-19.72 2.714-4.792 7.705-8.344 12.889-9.173l3.829-.613V287l-4.25.052c-2.337.029-6.598.955-9.468 2.058M305 294.212v7.471l3.955 1.185c7.549 2.262 13.967 10.254 14.023 17.461.021 2.666.209 2.789 3.25 2.121 1.776-.39 5.039-1.245 7.25-1.899 3.852-1.14 4.012-1.351 3.787-4.997-.784-12.71-14.675-26.831-27.856-28.317L305 286.74v7.472m-188 1.016v7.509l7.346.471c12.714.816 19.866 6.591 21.167 17.092.355 2.86.497 17.575.316 32.7-.314 26.223-.43 27.663-2.51 31-1.199 1.925-3.449 4.235-5 5.133-3.392 1.966-11.932 3.867-17.368 3.867H117v15.297l8.358-.59c8.863-.625 17.752-3.225 22.439-6.563l2.84-2.021 3.931 4.979c5.767 7.304 12.59 10.398 22.932 10.398 6.555 0 8.993-.472 13.5-2.613 9.975-4.738 17.175-14.417 18.601-25.004l.621-4.617 13.413-2.216 13.413-2.215 3.511 3.083c6.413 5.63 16.472 3.619 20.598-4.118l1.759-3.3.053 3c.029 1.65.328 4.661.663 6.691.558 3.375.331 3.861-2.653 5.676-6.939 4.219-16.986 3.653-24.396-1.375-4.052-2.75-5.379-2.497-9.384 1.785l-2.3 2.46 3.184 2.679c10.793 9.082 25.039 10.615 37.429 4.027l4.563-2.427 3.031 3.452c3.807 4.336 11.811 8.252 18.644 9.121l5.25.669v-15.002l-3.921-.627c-2.157-.345-5.869-2.121-8.25-3.946-4.758-3.648-4.52-2.37-3.2-17.172.538-6.025.227-8.211-2.253-15.86-2.758-8.506-3.093-9.018-8.158-12.424-2.905-1.954-6.505-3.695-8-3.869-14.881-1.733-19.977-1.517-26.405 1.116-1.301.534-3.611-1.745-10.094-9.957-8.307-10.525-8.394-10.694-7.406-14.394 3.533-13.238-13.159-22.2-22.734-12.205-7.777 8.117-1.721 22.067 9.586 22.078 3.53.004 4.08.537 14.972 14.504 10.745 13.779 12.926 15.825 14.372 13.486.345-.558 2.378-1.908 4.519-3 4.94-2.52 14.475-2.668 19.438-.301L263 353.37l-.004 7.065-.003 7.065-1.835-3c-1.008-1.65-2.469-3.497-3.246-4.105-2.563-2.005-7.961-3.335-11.039-2.72-3.011.603-9.182 5.629-9.991 8.137-.275.851-7.101 2.51-19.403 4.715-10.438 1.871-18.979 3.418-18.979 3.438v7.858c0 6.866-.337 8.333-2.759 11.991-4.005 6.053-9.377 9.252-16.641 9.911-5.26.477-6.747.186-11.595-2.267-3.469-1.755-6.357-4.1-7.674-6.231-2.063-3.338-2.074-3.578-.472-10.216.903-3.738 1.641-9.011 1.641-11.717 0-4.101.473-5.373 2.844-7.644 1.564-1.499 4.424-3.161 6.355-3.694l3.51-.97-1.015-5.134c-.824-4.168-1.226-4.845-2.139-3.596-.91 1.244-7.681 4.744-9.177 4.744-.208 0-.378-9.143-.378-20.318 0-22.891-.88-27.747-6.32-34.88-6.295-8.252-15.728-12.586-29.43-13.521l-8.25-.563v7.51m2 52.77v35.277l5.73-.673c7.088-.833 9.807-2.536 10.631-6.659.832-4.157.832-51.729 0-55.886-.827-4.136-3.877-6.048-10.784-6.761L119 312.72v35.278m104.079-28.415c.048 1.165.285 1.402.604.605.289-.722.253-1.585-.079-1.917-.332-.332-.568.258-.525 1.312m-52.032 14.734c-.044 12.104.058 12.785 1.834 12.221 1.641-.521 2.044.263 3.15 6.128l1.269 6.726 2.249-5.094c4.185-9.483 5.073-12.583 3.733-13.034-1.971-.662-8.347-9.937-10.344-15.046l-1.844-4.718-.047 12.817m33.916-2.207c1.355.541 2.619 1.139 2.81 1.329.19.191-3.288 9.253-7.729 20.138-5.465 13.395-7.747 20.12-7.059 20.808.687.687 1.015.194 1.015-1.526 0-2.522.143-2.565 19.814-5.902 18.131-3.076 19.975-3.578 21.725-5.909l1.913-2.548-2.653 1.725-2.653 1.726-12.133-15.476c-10.409-13.276-12.516-15.466-14.823-15.412l-2.69.064 2.463.983m118.015 44.121c-.053 7.898-6.61 15.581-14.728 17.257l-3.25.671v15.113l4.591-.629c14.037-1.924 26.82-14.672 27.631-27.554l.278-4.411-4.5-1.17c-10.909-2.835-9.998-2.901-10.022.723" fill="#1976D2" fill-rule="evenodd"/></svg>